HIERARCHY
ROOT hips
{
  OFFSET 0 9.313263304106702 1.2146308026317778
  CHANNELS 6 Xposition Yposition Zposition Yrotation Xrotation Zrotation
  JOINT spine
  {
    OFFSET -6.402521e-31 0.5173342420023708 0
    CHANNELS 3 Yrotation Xrotation Zrotation
    JOINT chest
    {
      OFFSET 0 1.130544299341115 0
      CHANNELS 3 Yrotation Xrotation Zrotation
      JOINT upperChest
      {
        OFFSET 0 1.0863555061129995 0
        CHANNELS 3 Yrotation Xrotation Zrotation
        JOINT neck
        {
          OFFSET 0 1.3773706506454462 0
          CHANNELS 3 Yrotation Xrotation Zrotation
          JOINT head
          {
            OFFSET 0 0.7374408940073979 0
            CHANNELS 3 Yrotation Xrotation Zrotation
            JOINT leftEye
            {
              OFFSET 0.25066580148932727 0.6408406698778757 0.15963719178883284
              CHANNELS 3 Yrotation Xrotation Zrotation
              End Site
              {
                OFFSET 0.25066580148932727 0.6408406698778757 0.15963719178883284
              }
            }
            JOINT rightEye
            {
              OFFSET -0.25066576739704244 0.6408406384191823 0.15963727561643756
              CHANNELS 3 Yrotation Xrotation Zrotation
              End Site
              {
                OFFSET -0.25066576739704244 0.6408406384191823 0.15963727561643756
              }
            }
          }
        }
        JOINT leftShoulder
        {
          OFFSET 0.3761817444281191 1.0539491987447769 0
          CHANNELS 3 Yrotation Xrotation Zrotation
          JOINT leftUpperArm
          {
            OFFSET 0.8702844380000002 0 0
            CHANNELS 3 Yrotation Xrotation Zrotation
            JOINT leftLowerArm
            {
              OFFSET 2.198527310000323 0 0
              CHANNELS 3 Yrotation Xrotation Zrotation
              JOINT leftHand
              {
                OFFSET 2.146852313968281 0 0
                CHANNELS 3 Yrotation Xrotation Zrotation
                JOINT leftIndexProximal
                {
                  OFFSET 0.6585177834681599 0.07380250427007962 0.18382213159631788
                  CHANNELS 3 Yrotation Xrotation Zrotation
                  JOINT leftIndexIntermediate
                  {
                    OFFSET 0.3323021288626682 -0.009606893929485771 -0.012820872253340998
                    CHANNELS 3 Yrotation Xrotation Zrotation
                    JOINT leftIndexDistal
                    {
                      OFFSET 0.2045908926985518 -0.0071133989147997845 -0.006828784783599051
                      CHANNELS 3 Yrotation Xrotation Zrotation
                      End Site
                      {
                        OFFSET 0.2045908926985518 -0.0071133989147997845 -0.006828784783599051
                      }
                    }
                  }
                }
                JOINT leftLittleProximal
                {
                  OFFSET 0.6110054258835662 0.07380246363125398 -0.29175655876064077
                  CHANNELS 3 Yrotation Xrotation Zrotation
                  JOINT leftLittleIntermediate
                  {
                    OFFSET 0.3144281999999998 -2.5124724523095665e-9 1.8658118799974588e-7
                    CHANNELS 3 Yrotation Xrotation Zrotation
                    JOINT leftLittleDistal
                    {
                      OFFSET 0.18116185580251631 0.002815456192251098 0.0034826415518049436
                      CHANNELS 3 Yrotation Xrotation Zrotation
                      End Site
                      {
                        OFFSET 0.18116185580251631 0.002815456192251098 0.0034826415518049436
                      }
                    }
                  }
                }
                JOINT leftMiddleProximal
                {
                  OFFSET 0.6637478005691111 0.07380246480054087 0.02046981859247815
                  CHANNELS 3 Yrotation Xrotation Zrotation
                  JOINT leftMiddleIntermediate
                  {
                    OFFSET 0.3705733999999994 -2.9611069152224445e-9 9.35054791928458e-8
                    CHANNELS 3 Yrotation Xrotation Zrotation
                    JOINT leftMiddleDistal
                    {
                      OFFSET 0.22861063500000056 -1.82673876025774e-9 -1.6740782024515788e-7
                      CHANNELS 3 Yrotation Xrotation Zrotation
                      End Site
                      {
                        OFFSET 0.22861063500000056 -1.82673876025774e-9 -1.6740782024515788e-7
                      }
                    }
                  }
                }
                JOINT leftRingProximal
                {
                  OFFSET 0.6561845547265777 0.07380246406440083 -0.13588087571513918
                  CHANNELS 3 Yrotation Xrotation Zrotation
                  JOINT leftRingIntermediate
                  {
                    OFFSET 0.3437531000000005 -2.746796123886952e-9 1.4935781944558357e-7
                    CHANNELS 3 Yrotation Xrotation Zrotation
                    JOINT leftRingDistal
                    {
                      OFFSET 0.1983118991198174 -0.002467117924596085 -0.004538141969590015
                      CHANNELS 3 Yrotation Xrotation Zrotation
                      End Site
                      {
                        OFFSET 0.1983118991198174 -0.002467117924596085 -0.004538141969590015
                      }
                    }
                  }
                }
                JOINT leftThumbProximal
                {
                  OFFSET 0.09767004258864787 -0.14930060425447422 -0.07008212897521154
                  CHANNELS 3 Yrotation Xrotation Zrotation
                  JOINT leftThumbIntermediate
                  {
                    OFFSET 0.36682123028154767 -0.015768465060082004 0.28693641268151077
                    CHANNELS 3 Yrotation Xrotation Zrotation
                    JOINT leftThumbDistal
                    {
                      OFFSET 0.21091084272403915 -0.016756648201192714 0.1933767059105508
                      CHANNELS 3 Yrotation Xrotation Zrotation
                      End Site
                      {
                        OFFSET 0.21091084272403915 -0.016756648201192714 0.1933767059105508
                      }
                    }
                  }
                }
              }
            }
          }
        }
        JOINT rightShoulder
        {
          OFFSET -0.37618174442811925 1.0539491987447769 0
          CHANNELS 3 Yrotation Xrotation Zrotation
          JOINT rightUpperArm
          {
            OFFSET -0.870284438 0 0
            CHANNELS 3 Yrotation Xrotation Zrotation
            JOINT rightLowerArm
            {
              OFFSET -2.1985273100003235 0 0
              CHANNELS 3 Yrotation Xrotation Zrotation
              JOINT rightHand
              {
                OFFSET -2.1468523139682802 0 0
                CHANNELS 3 Yrotation Xrotation Zrotation
                JOINT rightIndexProximal
                {
                  OFFSET -0.6585177834681599 0.07380250427007962 0.18382213159631788
                  CHANNELS 3 Yrotation Xrotation Zrotation
                  JOINT rightIndexIntermediate
                  {
                    OFFSET -0.3323021288626682 -0.009606893929485771 -0.012820872253340998
                    CHANNELS 3 Yrotation Xrotation Zrotation
                    JOINT rightIndexDistal
                    {
                      OFFSET -0.2045908926985518 -0.0071133989147997845 -0.006828784783599051
                      CHANNELS 3 Yrotation Xrotation Zrotation
                      End Site
                      {
                        OFFSET -0.2045908926985518 -0.0071133989147997845 -0.006828784783599051
                      }
                    }
                  }
                }
                JOINT rightLittleProximal
                {
                  OFFSET -0.6110054258835662 0.07380246363125398 -0.29175655876064077
                  CHANNELS 3 Yrotation Xrotation Zrotation
                  JOINT rightLittleIntermediate
                  {
                    OFFSET -0.3144281999999998 -2.5124724523095665e-9 1.8658118799974588e-7
                    CHANNELS 3 Yrotation Xrotation Zrotation
                    JOINT rightLittleDistal
                    {
                      OFFSET -0.18116185580251631 0.002815456192251098 0.0034826415518049436
                      CHANNELS 3 Yrotation Xrotation Zrotation
                      End Site
                      {
                        OFFSET -0.18116185580251631 0.002815456192251098 0.0034826415518049436
                      }
                    }
                  }
                }
                JOINT rightMiddleProximal
                {
                  OFFSET -0.6637478005691111 0.07380246480054087 0.02046981859247815
                  CHANNELS 3 Yrotation Xrotation Zrotation
                  JOINT rightMiddleIntermediate
                  {
                    OFFSET -0.3705733999999994 -2.9611069152224445e-9 9.35054791928458e-8
                    CHANNELS 3 Yrotation Xrotation Zrotation
                    JOINT rightMiddleDistal
                    {
                      OFFSET -0.22861063500000056 -1.82673876025774e-9 -1.6740782024515788e-7
                      CHANNELS 3 Yrotation Xrotation Zrotation
                      End Site
                      {
                        OFFSET -0.22861063500000056 -1.82673876025774e-9 -1.6740782024515788e-7
                      }
                    }
                  }
                }
                JOINT rightRingProximal
                {
                  OFFSET -0.6561845547265777 0.07380246406440083 -0.13588087571513918
                  CHANNELS 3 Yrotation Xrotation Zrotation
                  JOINT rightRingIntermediate
                  {
                    OFFSET -0.3437531000000005 -2.746796123886952e-9 1.4935781944558357e-7
                    CHANNELS 3 Yrotation Xrotation Zrotation
                    JOINT rightRingDistal
                    {
                      OFFSET -0.1983118991198174 -0.002467117924596085 -0.004538141969590015
                      CHANNELS 3 Yrotation Xrotation Zrotation
                      End Site
                      {
                        OFFSET -0.1983118991198174 -0.002467117924596085 -0.004538141969590015
                      }
                    }
                  }
                }
                JOINT rightThumbProximal
                {
                  OFFSET -0.09767004258864787 -0.14930060425447422 -0.07008212897521154
                  CHANNELS 3 Yrotation Xrotation Zrotation
                  JOINT rightThumbIntermediate
                  {
                    OFFSET -0.36682123028154767 -0.015768465060082004 0.28693641268151077
                    CHANNELS 3 Yrotation Xrotation Zrotation
                    JOINT rightThumbDistal
                    {
                      OFFSET -0.21091084272403915 -0.016756648201192714 0.1933767059105508
                      CHANNELS 3 Yrotation Xrotation Zrotation
                      End Site
                      {
                        OFFSET -0.21091084272403915 -0.016756648201192714 0.1933767059105508
                      }
                    }
                  }
                }
              }
            }
          }
        }
      }
    }
  }
  JOINT leftUpperLeg
  {
    OFFSET 0.7715603 -0.3993844658041501 0
    CHANNELS 3 Yrotation Xrotation Zrotation
    JOINT leftLowerLeg
    {
      OFFSET 0 -3.529830000249343 0
      CHANNELS 3 Yrotation Xrotation Zrotation
      JOINT leftFoot
      {
        OFFSET 0 -4.154939295409685 0.004208579085223096
        CHANNELS 3 Yrotation Xrotation Zrotation
        JOINT leftToes
        {
          OFFSET 0 -0.6353414391261847 1.10414981190622
          CHANNELS 3 Yrotation Xrotation Zrotation
          End Site
          {
            OFFSET 0 -0.6015820691747853 1.10414981190622
          }
        }
      }
    }
  }
  JOINT rightUpperLeg
  {
    OFFSET -0.7715603 -0.3993844658041501 0
    CHANNELS 3 Yrotation Xrotation Zrotation
    JOINT rightLowerLeg
    {
      OFFSET 0 -3.529830000249343 0
      CHANNELS 3 Yrotation Xrotation Zrotation
      JOINT rightFoot
      {
        OFFSET 0 -4.154939295409685 0.004208579085223096
        CHANNELS 3 Yrotation Xrotation Zrotation
        JOINT rightToes
        {
          OFFSET 0 -0.6353414391261847 1.10414981190622
          CHANNELS 3 Yrotation Xrotation Zrotation
          End Site
          {
            OFFSET 0 -0.6015820691747853 1.10414981190622
          }
        }
      }
    }
  }
}
MOTION
Frames: 4
Frame Time: 0.03333333333333333
1.9824179736050689 8.698004809292879 2.0460220179561794 16.8832858018075 8.684439854981834 8.90931893134346 1.7628637413670307 -4.550638267515074 -2.8243332007010586 1.6445921510561157 1.4697270683307304 1.1648245315761512 0 0 0 -0.2726033713097509 4.6639779905863135 -4.078850035147663 -1.8339512133917535 -4.344172073883247 -7.1175745127670815 0 0 0 0 0 0 -7.741439580165923 5.528180649250341 7.141023301966016 47.222203574150946 -27.105546205131326 -55.37582394848859 -145.61784579777307 -0.000044782617026010105 0.00012290698002471814 -49.99533510546622 -40.313619163666964 1.4593060839983243 23.50474533086176 5.756183866256983 -13.275478659457558 1.3896115971871839 0.048614037333078265 -5.813935949390193 -1.261054797568778 0.11380863549305119 10.361105582033174 18.556139070656155 9.837530842335859 -85.23632333665111 5.841650208701904 6.043441996135132 -95.58189996502522 5.911412074869275 4.378775837356037 -70.52421913557441 11.302169872153717 4.773953994917623 -65.73979713549765 6.625883764836679 5.005129899584463 -83.41432886415836 5.265634319226993 3.222673808487601 -62.30208482869706 11.841969295595062 7.388273083060295 -76.48304947626679 5.492171112586763 6.306054886161454 -90.27925526312883 4.940415082205275 4.2326502593612885 -69.34200169881798 0.21221981857085015 18.639553607343373 11.135313962883178 31.896648247279334 0.8128189208900778 -2.731576116272695 48.23286277816354 21.076802503661632 3.972523121568107 2.1166411659761835 3.7239256332985815 -0.5356325592983024 40.96498766613195 34.754115748984894 82.15866275514165 68.57260083742288 0.000012540022711925963 -0.0000066111667093164114 9.13302659923009 -28.86593738890312 -53.90865172955464 -6.94408309666678 7.440246530753871 35.64328001142677 -6.5718271284149505 5.739162411363722 89.32288498458193 -4.211838765713535 1.5231015368805125 56.29284220740738 -26.46972133573644 13.284151560878335 74.57524489867525 -6.110141225962021 4.919579994080916 88.04050086105512 -4.806165591253321 0.7218070170275837 64.60901652087455 -7.089369117997815 0.2738756470914708 29.979396530262022 -6.405502315450684 4.229820397509041 75.89225329472899 -5.662380092894931 4.124287269728768 73.60696876091231 -13.096953632828008 8.906439678246773 68.01795695101472 -5.541444343626405 5.617374615536361 83.31182365556606 -3.787251019419193 1.750007961088266 60.20883702349139 -2.081686788863376 25.368947305676606 -21.20977828140092 -25.43214034979495 0.11875758464799527 14.998076157958847 13.851066683353384 6.912113048406598 0.4952731214557997 6.314555070475315 -17.58396061299016 -13.934535761098429 4.7498369556344295 19.946224482437017 -2.3272518311913757 3.093107081876065 -11.741944512297044 2.008089266865965 0.0000074836425950974175 0.5608479554932103 -0.000003553634990530376 -9.893288910186058 -14.499368904053831 -13.511932056194633 -11.022483187025243 25.80460631581375 -7.827890439875891 -1.8960378175814248 -15.430622267731055 13.402679208001238 0.0000011859627658944857 -6.811722263865236 -0.0000018927425045325755
1.9830610535361548 8.69714476845481 2.0448626534292575 16.97974034578255 8.733247625487602 8.968191047530334 1.741131600396085 -4.462733865852271 -2.818303905097848 1.6899681677218343 1.5249106828569332 1.150733007082866 0 0 0 -0.3489063644975734 4.640070407940962 -4.1631622279149205 -2.4005864188313484 -4.507046362033962 -7.110782904645302 0 0 0 0 0 0 -7.7052703804074945 5.518454981538876 6.964602399652832 53.684606767824036 -23.457939897094214 -58.65767902253695 -148.88377101245771 -0.00003105193875863499 0.00012799352255567982 -60.17978907428257 -47.72214587408766 22.579358012463302 17.366406842044857 5.801332044733526 -4.606012184517525 1.4490014557368707 0.05505107304648468 -6.405092138435045 -1.211219516204605 0.10301961866740145 9.858519116659842 18.54974067651507 9.714995362481483 -84.01542092548515 5.846341623367249 5.920669278648872 -94.35940403131372 5.88055235752228 4.259195647145897 -69.30461903264072 11.285945786618793 4.674229975566934 -64.51736828192423 6.608136504961706 4.884090302759776 -82.19290336534092 5.210806507304082 3.113486644206599 -61.083279327915655 11.887600772250519 7.308292945117134 -75.25346365260916 5.503532440602792 6.184068637660762 -89.05382098133168 4.907539254432606 4.115858805608184 -68.12276988192764 0.21223012408502537 18.639553607343373 11.135305310182481 31.89662543494654 0.8128115029851075 -2.731590188947119 47.21480811908901 20.711245513647174 3.8320417219003136 2.2309006347432363 3.727324859727968 -0.543867064739924 40.96954926093959 34.696201235900894 82.18687608810737 68.50204092083335 -0.000004920720521446803 0.000006298010822045765 9.340470529451268 -28.889203147968914 -54.10630382663354 -6.952646419063915 7.387072099277585 35.70482573202221 -6.571830964379151 5.739151256391588 89.32288509183377 -4.211832377447497 1.5231157358840892 56.292866842707355 -26.474531236264227 13.304920386042157 74.63389571111009 -6.110132340491098 4.919551715373789 88.04012903318322 -4.80616091163784 0.7217840166749079 64.60890199007544 -7.107688328075957 0.2824204745219914 30.04032139939869 -6.405492618374093 4.229749340756997 75.89169766260702 -5.662394573725669 4.1242808498013135 73.60686480559913 -13.097152209368657 8.921818328517107 68.07916663956205 -5.541443725544975 5.617453970686274 83.31264094315462 -3.787235677898676 1.7500247242146956 60.20874972216507 -2.0758244999487876 25.31180052501736 -21.148651370219376 -25.432146442622212 0.11874444450974816 14.998104315642863 13.851075857068919 6.9121242287235525 0.495276752409777 6.290095712979134 -17.656766017728796 -13.980344950481708 4.724617989614563 19.966610720720496 -2.365497381973348 2.994812166562031 -11.64960763001244 1.9013865610456189 -0.000012387845653335423 0.4882612887368141 5.395812994339207e-7 -9.939886788785966 -14.60804437003268 -13.5733628022547 -11.033186543120534 25.88936500260297 -7.8185859268431495 -1.932194289596597 -15.448115583703945 13.417817040473762 0.000004642596192539516 -6.825631286880959 -0.000003255677298186778
1.9830300591208716 8.696654926646838 2.042360992301994 17.05337423897997 8.744850212567929 9.050451951566457 1.757848468762339 -4.368365342354807 -2.8137379098439403 1.8924706521254344 1.6027393731702706 1.1417579035094223 0 0 0 -0.5517544639852331 4.64421370264523 -4.257603757963254 -3.583745013142963 -4.643779413636221 -7.191485786616046 0 0 0 0 0 0 -7.759553996830915 5.502955229197016 6.794521778190294 55.08902865681871 -21.88575050540174 -60.158591326270965 -149.45646836467145 -0.000037460624741376874 0.00011459318718069288 -61.09170908416327 -52.04504447648512 44.29706723121482 11.520024637502036 7.54599038441686 4.885988062875622 1.5087023435947544 0.062131154797004665 -7.000080324134447 -1.157535911429379 0.09193595315456717 9.318367739464264 18.53994395058513 9.583609657711957 -82.7051002652375 5.84844320488653 5.788784897035008 -93.04726433148858 5.8445846952682965 4.1315687848600415 -67.99537359083257 11.266451895164455 4.566768415598535 -63.205074984183184 6.586210341558927 4.7545948095671795 -80.88173828583987 5.149367733361531 2.997613149319944 -59.77475583052334 11.93555216754573 7.219670297198819 -73.93369032711138 5.512807264515213 6.0528882214658974 -87.73844951899375 4.869475407736975 3.9913039166831448 -66.81391249639779 0.212231686806436 18.639553607343373 11.13531484695488 31.896620730552147 0.812810328928207 -2.7315936005045054 46.124577430140825 20.312485045899273 3.6824708577686533 2.3072969993159447 3.728914962983793 -0.5184693822888486 40.89820859868702 34.68364971315966 82.24879598428147 68.45170359727594 0.00001051216048523067 -0.000004781393702848219 9.616424476020443 -28.912201026050017 -54.414929494234684 -6.968603823862875 7.32409087180733 35.7707584690535 -6.57183266925211 5.739158120989798 89.32290434354096 -4.211844553118783 1.5231055937386677 56.29284220740738 -26.486123085231505 13.328245985275153 74.69688038901714 -6.1101332537382245 4.919515724293729 88.03979555092708 -4.8061681437708295 0.7217860979133123 64.60883782153235 -7.133027819164329 0.29482300145808255 30.106195798769416 -6.405465906081455 4.229682564538124 75.89114286527665 -5.6623809447085245 4.124278709825507 73.6067883850555 -13.09898499447631 8.94214817907561 68.14546108510463 -5.541461179271176 5.61759723893025 83.3140444497285 -3.787220336377616 1.750010950690421 60.2086870019052 -2.070455348929115 25.243105900344204 -21.082099420187244 -25.4321586282773 0.11874652558748028 14.998062079116664 13.851075868528712 6.912105308187321 0.4952889238128209 6.263909047815516 -17.693341963756737 -14.048112624517877 4.6997961357946245 19.966866882515216 -2.395489137508388 2.9951970332455606 -11.564402019633276 1.7669575279109957 0.000013643067481975053 0.43461449421065806 -0.00000402536075338588 -9.962582600705389 -14.705684974905907 -13.65381842000768 -11.044310787605719 25.98702715462082 -7.842122010582595 -1.9612591419028285 -15.461834918941047 13.441611606327005 0.000004595093408937068 -6.841499984340953 -0.0000017621182674759837
1.9817438992587004 8.696153814142399 2.039347002159865 17.135307531582622 8.70975072759142 9.137819803834574 1.7660094096584802 -4.264992579809011 -2.808779789177218 2.0658579720504 1.7051719342183518 1.1486450371854846 0 0 0 -0.8195430401718826 4.657773590770117 -4.339747551683109 -5.062101435162422 -4.909980298913929 -7.262937425373685 0 0 0 0 0 0 -7.858007671091075 5.490818949120815 6.707919729317454 51.08012572512527 -23.379282510196997 -59.23132915709011 -148.16681105432585 -0.000030785248485261106 0.00013722257909126623 -48.12156708486359 -53.393200482030934 52.83406821368457 10.226475171165685 8.34599771538314 8.272696317099282 1.5680411037011497 0.06979992152860856 -7.592064964212444 -1.1003353381983971 0.08066120567811126 8.74372536362808 18.526187828137616 9.444187431199328 -81.31253136192989 5.847354444450807 5.648560736814165 -91.652553203501 5.803168473014507 3.996832722435168 -66.60356333093874 11.243302078690823 4.452085838081269 -61.81016287663291 6.559655999212067 4.6175032837033605 -79.48792584470596 5.081175042422146 2.8759707707755635 -58.38358922768121 11.985157987564424 7.122319260925939 -72.5309537116556 5.5193266279508775 5.913226555264877 -86.34038320569285 4.8258811552486724 3.8598297549267233 -65.42245695528173 0.21223792506943984 18.63953558664982 11.135312570772083 31.896633039057658 0.8128276729506357 -2.7315933872821696 44.96867949459416 19.881377332331265 3.524945318979132 2.3481132580929263 3.7314218305633724 -0.5282257734669711 41.07419803572281 34.6457948438893 82.29472581053032 68.38304531776446 -0.000006300212071218626 0.000014543444436893188 9.969392628587473 -29.067034668463418 -54.869241688636336 -6.99282869732238 7.246476961363103 35.826282306745995 -6.571830538160909 5.739153830615907 89.32289474450032 -4.211849237847354 1.5231085830025766 56.29284220740738 -26.507293287141994 13.347673418466346 74.7504778144395 -6.110117125738654 4.919491301776224 88.03952842156902 -4.806151266250865 0.7217698749268009 64.6087568394931 -7.1646306823143435 0.31101245697047036 30.16226232529746 -6.4054557836297645 4.229636762904149 75.89061548075261 -5.6623835001492875 4.124276569849706 73.6067119645147 -13.103364331748024 8.965901914118733 68.20214822152181 -5.541454201722991 5.61780098873911 83.3161285429192 -3.787234825591965 1.7500027292845064 60.2086547929971 -2.072957442687625 25.159600321766877 -21.02716778348105 -25.43214490054234 0.11876657597102276 14.998070326029085 13.85107085843317 6.9120984279925155 0.49526683276267863 6.2631086351194485 -17.685002444736924 -14.107589870365556 4.679591041772922 19.98386714559898 -2.4372358021278444 2.968006397805667 -11.520588214135953 1.6672453291987348 0.00000601011868462174 0.41486072410009783 -0.000002848236886797938 -9.977250507945607 -14.756373059633706 -13.710499804739362 -11.056467909336016 26.090772744070488 -7.918159318811586 -2.0223674274129326 -15.480900705595838 13.487290321658781 0.000003118729987166602 -6.867858691749906 0.000004120436722436214
